<?xml version="1.0" standalone="no"?>
<!DOCTYPE svg PUBLIC "-//W3C//DTD SVG 20010904//EN"
 "http://www.w3.org/TR/2001/REC-SVG-20010904/DTD/svg10.dtd">
<svg version="1.0" xmlns="http://www.w3.org/2000/svg"
 width="128.000000pt" height="128.000000pt" viewBox="0 0 128.000000 128.000000"
 preserveAspectRatio="xMidYMid meet">
<metadata>
Created by potrace 1.11, written by Peter Selinger 2001-2013
</metadata>
<g transform="translate(0.000000,128.000000) scale(0.100000,-0.100000)"
fill="#000000" stroke="none">
<path d="M639 1116 c-14 -7 -56 -43 -94 -80 -89 -86 -106 -95 -175 -88 -30 2
-95 5 -145 5 -75 0 -98 -4 -140 -24 -76 -37 -79 -46 -78 -309 2 -340 3 -364
12 -378 6 -10 40 -14 132 -14 68 0 138 2 154 5 138 25 224 25 242 1 7 -10 13
-14 13 -8 0 5 10 -2 21 -16 11 -14 17 -18 13 -10 -7 13 -5 13 8 2 26 -21 129
-48 178 -47 90 3 187 33 224 71 21 20 94 28 114 12 7 -6 12 -6 12 -1 0 5 19 9
43 8 23 -1 48 0 55 3 9 3 11 67 8 296 -2 160 -7 315 -11 343 l-8 53 -64 20
c-36 11 -75 20 -87 20 -23 0 -65 39 -120 112 l-27 37 -128 0 c-84 0 -136 -5
-152 -13z"/>
</g>
</svg>
